<svg version="1.1" xmlns="http://www.w3.org/2000/svg" xmlns:xlink="http://www.w3.org/1999/xlink" width="485" height="385.44602" viewBox="0,0,485,385.44602"><g transform="translate(3,27.01745)"><g data-paper-data="{&quot;isPaintingLayer&quot;:true}" stroke-linecap="butt" stroke-linejoin="miter" stroke-miterlimit="10" stroke-dasharray="" stroke-dashoffset="0" style="mix-blend-mode: normal"><path d="M0,311v-313h477v313z" data-paper-data="{&quot;origPos&quot;:null}" fill="#66ceff" fill-rule="nonzero" stroke="none" stroke-width="0"/><path d="M-3,358.42857v-53.38095h485v53.38095z" data-paper-data="{&quot;origPos&quot;:null}" fill="#66ff66" fill-rule="nonzero" stroke="none" stroke-width="0"/><text transform="translate(66.47696,146.67259) rotate(-16.4999) scale(1.57964,1.57964)" font-size="40" xml:space="preserve" data-paper-data="{&quot;origPos&quot;:null,&quot;origRot&quot;:-0.9549609636702243}" fill="#cf0000" fill-rule="nonzero" stroke="none" stroke-width="1" stroke-linecap="butt" stroke-linejoin="miter" stroke-miterlimit="10" stroke-dasharray="" stroke-dashoffset="0" font-family="Marker" font-weight="normal" text-anchor="start" style="mix-blend-mode: normal"><tspan x="0" dy="0">Farm</tspan><tspan x="0" dy="46.150000000000006px">   Simulator </tspan></text><g data-paper-data="{&quot;index&quot;:null}"><path d="M397.75161,282.24518l-34.73615,36.93432" fill="none" fill-rule="evenodd" stroke="#ffdb5d" stroke-width="1.575"/><path d="M347.28015,319.1795c3.88128,0 3.88128,-3.78815 7.76257,-3.78815c3.87996,0 3.87996,3.78815 7.75932,3.78815c3.88321,0 3.88321,-3.78815 7.76569,-3.78815c3.88249,0 3.88249,3.78815 7.76497,3.78815" fill="none" fill-rule="evenodd" stroke="#ffdb5d" stroke-width="1.575"/><path d="M398.5618,285.40195l-14.75279,14.84761c-1.38509,1.39398 -3.7533,0.40654 -3.7533,-1.56523v-14.22945z" fill="#fff4e3" fill-rule="nonzero" stroke="none" stroke-width="1"/></g><g data-paper-data="{&quot;index&quot;:null}"><path d="M406.09184,296.13503v23.04447" fill="none" fill-rule="evenodd" stroke="#ffdb5d" stroke-width="1.575"/><path d="M390.35629,319.1795c3.88128,0 3.88128,-3.78815 7.76257,-3.78815c3.87996,0 3.87996,3.78815 7.76004,3.78815c3.88249,0 3.88249,-3.78815 7.76497,-3.78815c3.88249,0 3.88249,3.78815 7.76509,3.78815" fill="none" fill-rule="evenodd" stroke="#ffdb5d" stroke-width="1.575"/><path d="M408.20697,284.45488v14.22945c0,1.97177 -2.36821,2.95921 -3.7533,1.56523l-14.75279,-14.84761z" fill="#fff4e3" fill-rule="nonzero" stroke="none" stroke-width="1"/></g><g data-paper-data="{&quot;index&quot;:null}" fill-rule="nonzero" stroke="none" stroke-width="1"><path d="M452.95589,232.1579c0,32.31146 -26.02652,58.50514 -58.13165,58.50514c-32.10585,0 -58.13237,-26.19368 -58.13237,-58.50514z" fill="#fff4e3"/><path d="M437.50827,247.70502l-22.53351,-1.78178c-0.28913,-1.95146 -0.44223,-3.94654 -0.44223,-5.97887c0,-22.19979 17.88133,-40.19648 39.93992,-40.19648c2.23638,0 4.42698,0.19444 6.56302,0.5499l-12.9411,13.02413h13.06908l-10.29818,10.36499h10.50775z" fill="#fff4e3"/><path d="M339.27964,206.56147c21.64268,0 32.6209,25.88556 32.6209,25.88556l-34.18925,10.65412l-3.05811,-21.07151z" fill="#fff4e3"/><path d="M430.63413,232.1579l-24.62256,16.01495h22.47018c-5.96589,12.67696 -18.79463,21.44524 -33.65786,21.44524c-20.55681,0 -37.22105,-16.77131 -37.22105,-37.46019z" fill="#f3e4ce"/></g><g data-paper-data="{&quot;index&quot;:null}" fill-rule="nonzero" stroke="none" stroke-width="1"><path d="M322.61637,226.38993c0,-4.39105 3.53687,-7.95124 7.90052,-7.95124c4.36305,0 7.89992,3.56019 7.89992,7.95124c0,4.39117 -3.53687,7.95136 -7.89992,7.95136c-4.36365,0 -7.90052,-3.56019 -7.90052,-7.95136" fill="#ce2235"/><path d="M324.49764,203.31217c-0.11669,-0.52467 -0.14925,-1.08094 -0.0834,-1.65475c0.25092,-2.17762 1.98366,-3.97442 4.14097,-4.27941c2.18243,-0.30872 4.1322,0.83855 5.0431,2.61324c0,-0.02656 -0.00385,-0.05239 -0.00385,-0.07895c0,-2.71358 2.18567,-4.91259 4.88123,-4.91259c1.85748,0 3.4691,1.04561 4.29287,2.58296c0.28228,0.52719 0.89888,0.73545 1.44085,0.48922c0.61227,-0.27651 1.29052,-0.43057 2.00565,-0.42865c2.57887,0.00817 4.77391,2.14601 4.86296,4.73894c0.09157,2.67128 -1.93656,4.88039 -4.52167,5.06917l-0.13123,-0.00192h-4.62646c-0.41844,0 -8.1238,4.1626 -11.77676,4.50725c-0.85634,1.90351 -2.87749,3.16242 -5.15101,2.84108c-2.13724,-0.30115 -3.86049,-2.05949 -4.1346,-4.21368c-0.28168,-2.21535 0.90453,-4.1846 2.7131,-5.06653c0.81248,-0.39596 1.24533,-1.319 1.04825,-2.20538" fill="#ce2235"/><path d="M335.25091,200.36762l-1.26216,0.83206l-2.02945,-0.15586c0,0 -1.46597,-3.76352 -0.33684,-3.10258c1.12913,0.66106 2.05637,0.28733 2.8537,-0.84156c0.79673,-1.12949 0.30992,0.13327 0.30992,0.13327z" fill="#ce2235"/><path d="M318.9997,219.85936c1.96552,-3.39411 5.60706,-5.68217 9.79202,-5.68217c4.18484,0 7.8265,2.28806 9.79189,5.68217z" fill="#ffdb5d"/><path d="M327.90942,215.1501c0,-5.97827 4.81597,-10.82525 10.75603,-10.82525c5.94077,0 10.75615,4.84698 10.75615,10.82525c0,5.97887 -4.81537,10.82525 -10.75615,10.82525c-5.94005,0 -10.75603,-4.84638 -10.75603,-10.82525" fill="#e8441d"/><path d="M333.77869,215.1501c0,-2.71611 2.18807,-4.91824 4.88675,-4.91824c2.6994,0 4.88748,2.20213 4.88748,4.91824c0,2.71671 -2.18807,4.91884 -4.88748,4.91884c-2.69868,0 -4.88675,-2.20213 -4.88675,-4.91884" fill="#fff4e3"/><path d="M335.47647,215.1501c0,-1.77288 1.42787,-3.20977 3.18874,-3.20977c1.76219,0 3.18934,1.43688 3.18934,3.20977c0,1.77348 -1.42715,3.20977 -3.18934,3.20977c-1.76087,0 -3.18874,-1.43628 -3.18874,-3.20977" fill="#17242d"/></g></g></g></svg>